<svg xmlns="http://www.w3.org/2000/svg" xmlns:xlink="http://www.w3.org/1999/xlink" width="500" zoomAndPan="magnify" viewBox="0 0 375 374.999991" height="500" preserveAspectRatio="xMidYMid meet" version="1.0"><defs><clipPath id="ea46764101"><path d="M 35 173 L 256 173 L 256 366 L 35 366 Z M 35 173 " clip-rule="nonzero"/></clipPath><clipPath id="3a19351a84"><path d="M 234.375 163.367188 L 264.964844 199.792969 L 56.242188 375.089844 L 25.652344 338.667969 Z M 234.375 163.367188 " clip-rule="nonzero"/></clipPath><clipPath id="64e96a13d4"><path d="M 249.667969 181.578125 C 258.117188 191.636719 256.8125 206.640625 246.753906 215.085938 L 74.5625 359.707031 C 64.503906 368.15625 49.5 366.847656 41.054688 356.792969 C 32.605469 346.734375 33.910156 331.730469 43.96875 323.285156 L 216.164062 178.664062 C 226.222656 170.214844 241.222656 171.523438 249.667969 181.578125 Z M 249.667969 181.578125 " clip-rule="nonzero"/></clipPath><clipPath id="4379c909fe"><path d="M 0 0 L 221 0 L 221 193 L 0 193 Z M 0 0 " clip-rule="nonzero"/></clipPath><clipPath id="a7e2c7c0d7"><path d="M 199.375 -9.632812 L 229.964844 26.792969 L 21.242188 202.089844 L -9.347656 165.667969 Z M 199.375 -9.632812 " clip-rule="nonzero"/></clipPath><clipPath id="62c91e322c"><path d="M 214.667969 8.578125 C 223.117188 18.636719 221.8125 33.640625 211.753906 42.085938 L 39.5625 186.707031 C 29.503906 195.15625 14.5 193.847656 6.054688 183.792969 C -2.394531 173.734375 -1.089844 158.730469 8.96875 150.285156 L 181.164062 5.664062 C 191.222656 -2.785156 206.222656 -1.476562 214.667969 8.578125 Z M 214.667969 8.578125 " clip-rule="nonzero"/></clipPath><clipPath id="7dd5ff36be"><rect x="0" width="221" y="0" height="193"/></clipPath><clipPath id="1a9d71514f"><path d="M 94 67 L 276 67 L 276 228 L 94 228 Z M 94 67 " clip-rule="nonzero"/></clipPath><clipPath id="b9993011c1"><path d="M 254.84375 57.550781 L 285.433594 93.972656 L 115.125 237.007812 L 84.535156 200.585938 Z M 254.84375 57.550781 " clip-rule="nonzero"/></clipPath><clipPath id="33c2e14155"><path d="M 270.136719 75.761719 C 278.585938 85.820312 277.277344 100.820312 267.222656 109.269531 L 133.363281 221.695312 C 123.304688 230.140625 108.300781 228.835938 99.855469 218.777344 C 91.40625 208.71875 92.710938 193.71875 102.769531 185.269531 L 236.628906 72.84375 C 246.6875 64.398438 261.691406 65.703125 270.136719 75.761719 Z M 270.136719 75.761719 " clip-rule="nonzero"/></clipPath><clipPath id="6d641f5503"><path d="M 0 0 L 182 0 L 182 161 L 0 161 Z M 0 0 " clip-rule="nonzero"/></clipPath><clipPath id="c36fc63819"><path d="M 160.84375 -9.449219 L 191.433594 26.972656 L 21.125 170.007812 L -9.464844 133.585938 Z M 160.84375 -9.449219 " clip-rule="nonzero"/></clipPath><clipPath id="970209d28b"><path d="M 176.136719 8.761719 C 184.585938 18.820312 183.277344 33.820312 173.222656 42.269531 L 39.363281 154.695312 C 29.304688 163.140625 14.300781 161.835938 5.855469 151.777344 C -2.59375 141.71875 -1.289062 126.71875 8.769531 118.269531 L 142.628906 5.84375 C 152.6875 -2.601562 167.691406 -1.296875 176.136719 8.761719 Z M 176.136719 8.761719 " clip-rule="nonzero"/></clipPath><clipPath id="8405d1cfd8"><rect x="0" width="182" y="0" height="161"/></clipPath><clipPath id="d659682008"><path d="M 276 11 L 338 11 L 338 70 L 276 70 Z M 276 11 " clip-rule="nonzero"/></clipPath><clipPath id="81305672fb"><path d="M 318.757812 0.144531 L 349.0625 36.226562 L 295.792969 80.964844 L 265.488281 44.882812 Z M 318.757812 0.144531 " clip-rule="nonzero"/></clipPath><clipPath id="edf4dbb893"><path d="M 337.414062 25.4375 L 337.460938 25.667969 C 338.039062 28.507812 338.050781 31.4375 337.488281 34.28125 L 337.367188 34.90625 C 336.722656 38.171875 335.582031 41.324219 333.976562 44.246094 L 333.636719 44.867188 C 331.804688 48.210938 329.554688 51.304688 326.941406 54.078125 L 326.726562 54.304688 C 323.96875 57.234375 320.882812 59.832031 317.523438 62.042969 L 317.128906 62.304688 C 313.976562 64.382812 310.566406 66.046875 306.988281 67.25 L 306.363281 67.460938 C 303.207031 68.523438 299.902344 69.097656 296.574219 69.167969 L 295.9375 69.179688 C 293.039062 69.238281 290.15625 68.722656 287.460938 67.664062 L 287.242188 67.578125 C 284.703125 66.578125 282.453125 64.960938 280.699219 62.875 C 278.945312 60.785156 277.742188 58.292969 277.199219 55.621094 L 277.152344 55.390625 C 276.574219 52.550781 276.5625 49.625 277.121094 46.777344 L 277.246094 46.15625 C 277.886719 42.882812 279.023438 39.730469 280.617188 36.804688 L 280.933594 36.226562 C 282.738281 32.910156 284.960938 29.839844 287.554688 27.09375 L 287.878906 26.75 C 290.640625 23.824219 293.730469 21.230469 297.089844 19.019531 L 297.351562 18.847656 C 300.535156 16.753906 303.972656 15.074219 307.578125 13.84375 L 308.253906 13.617188 C 311.40625 12.542969 314.707031 11.960938 318.039062 11.890625 L 318.675781 11.878906 C 321.574219 11.820312 324.453125 12.335938 327.152344 13.394531 L 327.371094 13.480469 C 329.910156 14.480469 332.15625 16.097656 333.910156 18.183594 C 335.664062 20.273438 336.867188 22.765625 337.414062 25.4375 Z M 337.414062 25.4375 " clip-rule="nonzero"/></clipPath><clipPath id="957aceb5cf"><path d="M 0.480469 0.761719 L 62 0.761719 L 62 58.359375 L 0.480469 58.359375 Z M 0.480469 0.761719 " clip-rule="nonzero"/></clipPath><clipPath id="e655992b50"><path d="M 42.757812 -10.855469 L 73.0625 25.226562 L 19.792969 69.964844 L -10.511719 33.882812 Z M 42.757812 -10.855469 " clip-rule="nonzero"/></clipPath><clipPath id="ac095c7ae4"><path d="M 61.414062 14.4375 L 61.460938 14.667969 C 62.039062 17.507812 62.050781 20.4375 61.488281 23.28125 L 61.367188 23.90625 C 60.722656 27.171875 59.582031 30.324219 57.976562 33.246094 L 57.636719 33.867188 C 55.804688 37.210938 53.554688 40.304688 50.941406 43.078125 L 50.726562 43.304688 C 47.96875 46.234375 44.882812 48.832031 41.523438 51.042969 L 41.128906 51.304688 C 37.976562 53.382812 34.566406 55.046875 30.988281 56.25 L 30.363281 56.460938 C 27.207031 57.523438 23.902344 58.097656 20.574219 58.167969 L 19.9375 58.179688 C 17.039062 58.238281 14.15625 57.722656 11.460938 56.664062 L 11.242188 56.578125 C 8.703125 55.578125 6.453125 53.960938 4.699219 51.875 C 2.945312 49.785156 1.742188 47.292969 1.199219 44.621094 L 1.152344 44.390625 C 0.574219 41.550781 0.5625 38.625 1.121094 35.777344 L 1.246094 35.15625 C 1.886719 31.882812 3.023438 28.730469 4.617188 25.804688 L 4.933594 25.226562 C 6.738281 21.910156 8.960938 18.839844 11.554688 16.09375 L 11.878906 15.75 C 14.640625 12.824219 17.730469 10.230469 21.089844 8.019531 L 21.351562 7.847656 C 24.535156 5.753906 27.972656 4.074219 31.578125 2.84375 L 32.253906 2.617188 C 35.40625 1.542969 38.707031 0.960938 42.039062 0.890625 L 42.675781 0.878906 C 45.574219 0.820312 48.453125 1.335938 51.152344 2.394531 L 51.371094 2.480469 C 53.910156 3.480469 56.15625 5.097656 57.910156 7.183594 C 59.664062 9.273438 60.867188 11.765625 61.414062 14.4375 Z M 61.414062 14.4375 " clip-rule="nonzero"/></clipPath><clipPath id="3cf771bbc3"><rect x="0" width="62" y="0" height="59"/></clipPath></defs><g clip-path="url(#ea46764101)"><g clip-path="url(#3a19351a84)"><g clip-path="url(#64e96a13d4)"><g transform="matrix(1, 0, 0, 1, 35, 173)"><g clip-path="url(#7dd5ff36be)"><g clip-path="url(#4379c909fe)"><g clip-path="url(#a7e2c7c0d7)"><g clip-path="url(#62c91e322c)"><path fill="#1a1a1a" d="M 199.375 -9.632812 L 229.964844 26.792969 L 21.386719 201.972656 L -9.203125 165.550781 Z M 199.375 -9.632812 " fill-opacity="1" fill-rule="nonzero"/></g></g></g></g></g></g></g></g><g clip-path="url(#1a9d71514f)"><g clip-path="url(#b9993011c1)"><g clip-path="url(#33c2e14155)"><g transform="matrix(1, 0, 0, 1, 94, 67)"><g clip-path="url(#8405d1cfd8)"><g clip-path="url(#6d641f5503)"><g clip-path="url(#c36fc63819)"><g clip-path="url(#970209d28b)"><path fill="#1a1a1a" d="M 160.84375 -9.449219 L 191.433594 26.972656 L 21.125 170.007812 L -9.464844 133.585938 Z M 160.84375 -9.449219 " fill-opacity="1" fill-rule="nonzero"/></g></g></g></g></g></g></g></g><g clip-path="url(#d659682008)"><g clip-path="url(#81305672fb)"><g clip-path="url(#edf4dbb893)"><g transform="matrix(1, 0, 0, 1, 276, 11)"><g clip-path="url(#3cf771bbc3)"><g clip-path="url(#957aceb5cf)"><g clip-path="url(#e655992b50)"><g clip-path="url(#ac095c7ae4)"><path fill="#1a1a1a" d="M 42.640625 -10.996094 L 73.183594 25.367188 L 19.914062 70.105469 L -10.628906 33.742188 Z M 42.640625 -10.996094 " fill-opacity="1" fill-rule="nonzero"/></g></g></g></g></g></g></g></g></svg>